# xmcd CD database file
#
# Track frame offsets:
#	150
#	18179
#	29396
#	50926
#	64376
#	84597
#	102199
#	117056
#	139934
#
# Disc length: 2318 seconds
#
# Revision: 0
# Processed by: cddbd v1.5.2PL0 Copyright (c) Steve Scherf et al.
# Submitted via: CDex 1.70beta2
#
DISCID=79090c09
DTITLE=Karen Lafferty - Bird in a Golden Sky
DYEAR=1975
DGENRE=Country
TTITLE0=Bird in a Golden Sky
TTITLE1=Grandma Stout
TTITLE2=Testimony
TTITLE3=Garden
TTITLE4=The Girl
TTITLE5=Sweet Summer Rain
TTITLE6=No Time for Jesus
TTITLE7=Bobbi's Song
TTITLE8=Peaceful Mind /Tears of Love
EXTD=YEAR: 1975
EXTT0=
EXTT1=
EXTT2=
EXTT3=
EXTT4=
EXTT5=
EXTT6=
EXTT7=
EXTT8=
PLAYORDER=
